<?xml version="1.0" encoding="UTF-8"?> <svg xmlns="http://www.w3.org/2000/svg" height="512pt" viewBox="-48 0 512 512.00031" width="512pt"> <g id="surface1"> <path d="M 34.855469 231.421875 L 24.4375 232.246094 L 23.882812 266.746094 L 28.042969 265.125 C 29.886719 264.40625 31.808594 263.824219 33.746094 263.402344 C 33.832031 263.382812 33.921875 263.371094 34.011719 263.355469 C 34.203125 263.324219 34.390625 263.292969 34.582031 263.253906 L 36.042969 262.9375 L 38.304688 262.679688 C 39.964844 262.488281 41.4375 262.367188 42.808594 262.304688 L 44.578125 262.226562 L 46.695312 262.25 C 48.699219 262.269531 50.652344 262.332031 52.496094 262.433594 L 56.695312 262.667969 L 48.648438 234.222656 C 48.550781 233.863281 48.292969 232.953125 47.988281 232.347656 L 47.257812 230.886719 L 45.636719 230.707031 C 45.4375 230.683594 45.199219 230.671875 44.941406 230.671875 C 44.804688 230.671875 44.660156 230.675781 44.515625 230.679688 L 41.402344 230.8125 L 41.410156 230.917969 L 34.855469 231.425781 Z M 34.855469 231.421875 " style=" stroke:none;fill-rule:nonzero;fill:rgb(35.686275%,81.568627%,98.823529%);fill-opacity:1;"></path> <path d="M 331.992188 492.367188 C 343.871094 481.761719 348.105469 464.925781 351.144531 449.976562 C 365.195312 380.707031 368.34375 309.949219 360.503906 239.667969 C 357.289062 210.847656 351.398438 173.5 334.21875 140.222656 L 333.90625 139.617188 L 333.359375 139.203125 C 333.269531 139.136719 333.160156 139.015625 333.152344 138.824219 L 333.125 138.125 L 332.792969 137.511719 C 331.511719 135.144531 330.445312 133.253906 329.4375 131.570312 C 314.355469 106.097656 292.664062 86.460938 268.363281 76.273438 C 257.855469 71.871094 248.503906 71 237.617188 69.980469 C 235.660156 69.804688 233.660156 69.613281 231.632812 69.40625 C 224.332031 68.652344 216.550781 67.917969 208.746094 67.917969 C 200.832031 67.917969 193.585938 68.6875 186.59375 70.261719 C 170.058594 73.996094 153.929688 81.378906 139.953125 91.621094 C 114.257812 110.457031 93.769531 139.265625 80.710938 174.9375 C 67.882812 209.929688 63.554688 247.675781 61.214844 276.648438 C 56.730469 332.40625 57.351562 388.898438 63.0625 444.554688 C 64.710938 460.710938 67.199219 477.492188 77.707031 489.511719 C 91.878906 505.742188 115.925781 507.929688 137.582031 507.929688 C 139.605469 507.929688 141.625 507.910156 143.621094 507.878906 L 279.132812 505.917969 C 299.328125 505.621094 318.570312 504.359375 331.992188 492.367188 Z M 155.8125 110.425781 C 157.964844 104.695312 164.542969 101.574219 175.925781 100.886719 C 182.949219 100.460938 190.097656 100.246094 197.171875 100.246094 C 209.039062 100.246094 221.015625 100.847656 232.757812 102.035156 C 233.8125 102.144531 235 102.242188 236.300781 102.347656 L 236.492188 102.363281 C 245.28125 103.078125 258.558594 104.152344 262.839844 110.726562 C 264.539062 113.34375 264.679688 116.589844 263.261719 120.640625 C 261.375 126.03125 256.164062 130.371094 249.3125 132.25 C 246.082031 133.144531 242.445312 133.5625 237.863281 133.5625 C 235.207031 133.5625 232.582031 133.417969 230.039062 133.28125 L 182.945312 130.765625 C 176.507812 130.421875 169.210938 130.035156 163.273438 126.621094 C 157.925781 123.535156 153.554688 116.464844 155.8125 110.425781 Z M 97.03125 200.972656 C 99.054688 189.316406 101.53125 178.257812 109.457031 171.097656 C 113.070312 167.828125 117.621094 165.535156 123.378906 164.078125 C 128.769531 162.714844 134.625 162.226562 140.152344 161.90625 C 156.140625 160.960938 172.460938 160.484375 188.65625 160.484375 C 190.480469 160.484375 192.308594 160.488281 194.132812 160.503906 C 225.8125 160.722656 257.765625 162.789062 289.113281 166.640625 C 290.800781 166.84375 292.65625 166.996094 294.625 167.152344 L 294.75 167.164062 C 303.414062 167.839844 314.195312 168.675781 319.5625 175.53125 C 325.535156 183.160156 327.164062 197.753906 326.125 208.832031 C 324.953125 221.320312 318.835938 232.160156 309.765625 237.828125 C 301.15625 243.210938 290.503906 243.863281 279.433594 244.09375 C 269.660156 244.285156 259.902344 244.382812 250.433594 244.382812 C 209.089844 244.382812 167.359375 242.605469 126.394531 239.105469 C 116.664062 238.28125 105.785156 236.734375 99.839844 228.820312 C 94.097656 221.175781 95.378906 210.441406 97.03125 200.972656 Z M 192.265625 478.960938 C 175.402344 478.960938 158.390625 478.324219 141.707031 477.066406 C 127.4375 476 113.105469 473.578125 104.925781 463.175781 C 99.003906 455.640625 97.820312 445.777344 97.046875 435.484375 C 94.21875 398.023438 94.964844 366.679688 96.332031 326.515625 C 96.335938 326.402344 96.375 326.296875 96.441406 326.203125 L 98.933594 322.765625 L 94.863281 321.5625 C 92.371094 320.824219 90.261719 319.828125 88.410156 318.511719 C 82.820312 314.542969 79.535156 307.15625 80.046875 299.695312 C 80.507812 292.957031 83.78125 286.296875 89.269531 280.9375 C 100.382812 270.097656 116.882812 267.519531 131.472656 265.953125 C 148.242188 264.160156 165.199219 263.042969 181.871094 262.640625 C 186.902344 262.515625 192.015625 262.449219 197.074219 262.449219 C 221.632812 262.449219 246.433594 263.929688 270.789062 266.847656 C 283.835938 268.410156 297.617188 270.402344 311.746094 272.769531 C 323.492188 274.746094 331.734375 281.394531 334.363281 291 C 336.722656 299.65625 333.796875 309.582031 327.074219 315.703125 L 325.613281 317.03125 L 326.257812 318.898438 C 326.269531 318.933594 326.28125 318.964844 326.289062 319.019531 C 329.8125 355.164062 328.101562 391.539062 321.199219 427.140625 C 318.332031 441.988281 313.636719 458.292969 300.585938 466.664062 C 293.355469 471.300781 284.652344 472.699219 275.625 473.824219 C 248.160156 477.230469 220.113281 478.960938 192.265625 478.960938 Z M 192.265625 478.960938 " style=" stroke:none;fill-rule:nonzero;fill:rgb(79.607843%,89.803922%,50.196078%);fill-opacity:1;"></path> <path d="M 57.730469 263.820312 C 53.96875 263.570312 50.082031 263.3125 46.167969 263.3125 C 41.535156 263.3125 37.546875 263.6875 33.972656 264.457031 C 25.328125 266.316406 18.332031 270.914062 14.789062 277.066406 C 10.621094 284.261719 11.03125 293.421875 11.355469 300.796875 L 13.628906 351.542969 L 17.890625 349.105469 C 21.28125 347.175781 25.085938 345.742188 29.210938 344.855469 C 33.296875 343.96875 37.824219 343.539062 43.058594 343.539062 C 46.535156 343.539062 49.96875 343.714844 54.050781 343.976562 L 57.210938 344.179688 L 57.246094 341.011719 C 57.464844 319.5 58.441406 297.816406 60.15625 276.566406 C 60.375 273.769531 60.640625 270.671875 60.972656 267.089844 L 61.273438 263.8125 L 57.984375 263.8125 C 57.882812 263.808594 57.785156 263.8125 57.730469 263.820312 Z M 57.730469 263.820312 " style=" stroke:none;fill-rule:nonzero;fill:rgb(69.803922%,91.764706%,97.647059%);fill-opacity:1;"></path> <path d="M 412.484375 389.339844 L 409.414062 389.332031 C 403.789062 389.3125 398.296875 389.300781 392.855469 389.300781 L 392.863281 389.289062 L 376.332031 389.289062 C 372.410156 389.28125 368.433594 389.269531 364.398438 389.25 L 361.710938 389.238281 L 361.402344 391.910156 C 360.839844 396.8125 360.199219 401.894531 359.5 407.015625 L 359.285156 408.601562 L 358.832031 411.8125 C 358.464844 414.417969 358.066406 417.023438 357.660156 419.625 L 356.667969 425.949219 L 356.640625 425.980469 L 356.496094 426.855469 C 355.550781 432.488281 354.550781 438.058594 353.527344 443.40625 L 353.222656 444.992188 L 353.230469 445.003906 L 352.601562 448.113281 L 352.195312 450.179688 C 351.535156 453.398438 350.960938 456.023438 350.382812 458.445312 L 353.757812 460.199219 L 349.863281 464.609375 L 348.660156 465.039062 L 348.214844 466.476562 C 347.53125 468.703125 346.789062 470.84375 346.015625 472.832031 L 345.308594 474.660156 L 345.320312 474.671875 L 344.394531 476.695312 C 341.929688 482.085938 339.042969 486.542969 335.554688 490.328125 L 332.1875 493.984375 L 336.992188 495.257812 C 339.699219 495.976562 342.523438 496.410156 345.40625 496.585938 L 344.792969 497.230469 L 352.777344 496.445312 C 355.761719 496.148438 358.792969 495.5625 361.78125 494.695312 L 361.785156 494.878906 L 363.953125 494.066406 L 366.714844 493.261719 L 366.535156 493.078125 C 371.808594 491.003906 376.726562 488.140625 381.164062 484.539062 C 383.117188 482.953125 384.992188 481.21875 386.894531 479.238281 L 387.554688 478.550781 L 387.597656 478.597656 L 388.230469 477.84375 L 389.128906 476.910156 L 389.066406 476.859375 L 389.703125 476.105469 C 395.980469 468.675781 401.011719 459.519531 404.65625 448.890625 L 404.746094 448.96875 L 406.082031 444.425781 C 406.585938 442.699219 407.007812 441.140625 407.34375 439.757812 C 407.410156 439.519531 407.464844 439.269531 407.515625 439.015625 L 408.933594 432.292969 L 408.957031 432.269531 L 409.054688 431.730469 L 409.710938 428.605469 L 409.5625 428.765625 C 409.976562 426.199219 410.34375 423.535156 410.65625 420.808594 L 410.730469 420.875 L 410.988281 417.914062 L 410.996094 417.839844 L 410.992188 417.839844 L 411.242188 414.964844 C 411.589844 410.933594 411.859375 406.664062 412.046875 402.277344 L 412.414062 393.8125 L 412.359375 393.871094 C 412.375 393.390625 412.386719 392.910156 412.402344 392.410156 Z M 412.484375 389.339844 " style=" stroke:none;fill-rule:nonzero;fill:rgb(68.627451%,47.45098%,47.45098%);fill-opacity:1;"></path> <path d="M 36.472656 484.261719 L 36.636719 484.34375 L 36.648438 484.332031 L 38.574219 485.125 C 40.902344 486.085938 43.394531 486.925781 46.191406 487.691406 L 47.875 484.171875 C 50.121094 485.796875 52.351562 487.359375 54.539062 488.828125 L 55.175781 489.660156 L 56.355469 489.851562 C 60.691406 490.550781 65.53125 491.097656 71.585938 491.582031 L 78.015625 492.089844 L 74.265625 486.84375 C 69.953125 480.808594 66.859375 473.308594 64.816406 463.914062 L 64.546875 462.671875 L 64.496094 462.640625 C 64.101562 460.339844 63.625 457.585938 63.621094 457.539062 L 62.75 450.746094 L 62.683594 450.824219 C 62.464844 449.039062 62.246094 447.078125 62 444.664062 C 61.550781 440.3125 61.113281 435.65625 60.582031 429.558594 L 60.183594 424.980469 L 59.835938 420.324219 C 59.328125 413.539062 58.886719 406.675781 58.519531 399.925781 L 57.996094 390.210938 L 54.515625 395.960938 L 50.773438 396.164062 C 47.96875 396.316406 45.496094 396.390625 43.214844 396.390625 C 40.644531 396.390625 37.929688 396.308594 35.140625 396.144531 L 31.257812 395.917969 L 27.1875 395.449219 C 21.175781 394.753906 15.132812 393.660156 9.230469 392.1875 L 5.070312 391.152344 L 6.914062 408.597656 L 7.476562 409.289062 C 8.675781 410.769531 9.910156 412.222656 11.140625 413.675781 L 13.464844 411.777344 L 11.175781 413.71875 L 12.121094 414.828125 L 12.09375 414.855469 L 12.101562 414.867188 L 11.132812 415.988281 C 10.367188 416.878906 9.609375 417.769531 8.875 418.667969 L 8.082031 419.636719 L 9.492188 433.101562 C 9.746094 435.515625 10.019531 437.890625 10.308594 440.167969 L 11.117188 446.535156 L 11.222656 446.425781 C 11.59375 448.621094 11.980469 450.625 12.410156 452.488281 L 12.59375 453.289062 L 13.160156 453.882812 C 14.804688 455.613281 16.5 457.339844 18.226562 459.050781 L 15 461.167969 C 15.914062 463.550781 16.90625 465.675781 18.035156 467.660156 L 19.101562 469.535156 L 19.089844 469.550781 L 19.195312 469.691406 L 20.132812 471.339844 L 20.277344 471.171875 L 20.503906 471.480469 C 21.144531 472.351562 21.707031 473.070312 22.289062 473.75 C 25.550781 477.546875 29.671875 480.746094 34.527344 483.25 L 34.847656 483.417969 L 34.738281 483.542969 Z M 36.472656 484.261719 " style=" stroke:none;fill-rule:nonzero;fill:rgb(68.627451%,47.45098%,47.45098%);fill-opacity:1;"></path> <path d="M 393.734375 265.417969 L 389.019531 261.238281 L 385.804688 334.886719 L 384.6875 337.941406 L 387.9375 338.742188 C 392.425781 339.847656 396.714844 341.882812 400.332031 344.621094 L 404.957031 348.121094 L 406.332031 305.175781 C 406.613281 296.515625 406.929688 286.703125 403.257812 278.183594 C 401.261719 273.542969 398.054688 269.246094 393.734375 265.417969 Z M 393.734375 265.417969 " style=" stroke:none;fill-rule:nonzero;fill:rgb(96.862745%,70.196078%,43.529412%);fill-opacity:1;"></path> <path d="M 367.023438 251.382812 L 362.65625 249.890625 L 363.066406 254.488281 C 365.496094 281.707031 366.289062 309.316406 365.425781 336.546875 L 365.285156 340.917969 L 369.414062 339.472656 C 371.621094 338.703125 373.945312 338.183594 376.324219 337.933594 L 378.953125 337.660156 L 380.726562 256.859375 L 378.949219 256.035156 C 374.875 254.128906 370.808594 252.671875 367.023438 251.382812 Z M 367.023438 251.382812 " style=" stroke:none;fill-rule:nonzero;fill:rgb(96.862745%,70.196078%,43.529412%);fill-opacity:1;"></path> <path d="M 384.351562 338.0625 L 387.753906 338.460938 L 387.753906 335.09375 L 390.902344 263.042969 L 389.5625 262.097656 C 388.296875 261.207031 386.980469 260.351562 385.636719 259.546875 C 384.769531 259.035156 383.9375 258.566406 383.101562 258.117188 L 378.792969 255.800781 L 376.988281 337.730469 L 380.035156 337.75 C 381.421875 337.757812 382.875 337.863281 384.351562 338.0625 Z M 384.351562 338.0625 " style=" stroke:none;fill-rule:nonzero;fill:rgb(97.647059%,84.705882%,53.72549%);fill-opacity:1;"></path> <path d="M 292.4375 457.644531 C 295.699219 455.636719 296.324219 451.566406 296.511719 447.46875 C 296.605469 445.378906 296.78125 443.195312 296.964844 440.957031 C 297.34375 436.351562 297.734375 431.589844 297.355469 427.046875 C 296.992188 422.554688 294.425781 419.957031 289.726562 419.335938 C 287.796875 419.078125 285.644531 418.957031 283.144531 418.957031 C 280.71875 418.957031 278.269531 419.070312 275.851562 419.183594 L 275.386719 419.207031 C 273.480469 419.296875 271.511719 419.390625 269.652344 419.410156 L 248.820312 419.628906 C 247.082031 419.644531 245.339844 419.664062 243.601562 419.6875 L 239.730469 419.738281 C 235.160156 419.804688 230.429688 419.871094 225.765625 419.871094 C 221.851562 419.90625 217.574219 420.390625 215.527344 423.683594 C 214.390625 425.503906 214.335938 427.710938 214.285156 429.519531 L 213.664062 453.054688 C 213.632812 454.414062 213.585938 456.28125 214.636719 457.769531 C 216.242188 460.003906 219.410156 460.003906 220.761719 460.003906 L 221.304688 460 L 286.371094 458.878906 C 288.214844 458.855469 290.503906 458.828125 292.4375 457.644531 Z M 292.4375 457.644531 " style=" stroke:none;fill-rule:nonzero;fill:rgb(97.647059%,84.705882%,53.72549%);fill-opacity:1;"></path> <path d="M 262.371094 29.027344 L 242.597656 16.464844 C 234.625 11.40625 225.585938 5.671875 215.570312 4.367188 C 214.042969 4.167969 212.472656 4.066406 210.90625 4.066406 C 199.332031 4.066406 187.882812 9.503906 176.195312 15.558594 C 164.503906 21.621094 153.683594 27.976562 149.8125 39.039062 C 147.335938 46.128906 148.359375 53.839844 149.351562 61.292969 C 150.082031 66.847656 150.835938 72.59375 150.195312 78.167969 L 149.539062 83.863281 L 154.59375 81.152344 C 160.695312 77.882812 167.03125 75.105469 173.429688 72.90625 L 175.316406 72.257812 L 175.316406 72.25 L 177.445312 71.597656 C 178.65625 71.226562 179.867188 70.875 181.082031 70.542969 L 182.890625 70.046875 L 183.238281 68.199219 C 183.964844 64.304688 183.453125 60.105469 182.953125 56.042969 C 182.1875 49.769531 181.460938 43.84375 184.738281 38.699219 C 188.570312 32.667969 196.265625 30.808594 203.289062 29.789062 C 206.769531 29.28125 210.882812 28.765625 214.988281 28.765625 C 217.054688 28.765625 218.949219 28.890625 220.78125 29.148438 C 227.238281 30.058594 232.792969 32.785156 236.414062 36.820312 C 243.363281 44.582031 243.035156 56.152344 242.179688 66.390625 L 241.933594 69.292969 L 244.832031 69.621094 C 247.859375 69.960938 250.183594 70.28125 252.371094 70.65625 L 254.671875 71.050781 L 256.292969 71.402344 C 260.773438 72.371094 264.855469 73.640625 268.777344 75.285156 C 270.378906 75.957031 271.957031 76.664062 273.464844 77.386719 L 276.699219 78.933594 L 277.652344 75.472656 C 280.660156 64.523438 283.375 52.019531 277.402344 42.152344 C 273.855469 36.308594 267.753906 32.441406 262.371094 29.027344 Z M 262.371094 29.027344 " style=" stroke:none;fill-rule:nonzero;fill:rgb(97.647059%,84.705882%,53.72549%);fill-opacity:1;"></path> <path d="M 237.933594 135.523438 C 242.625 135.523438 246.410156 135.085938 249.839844 134.144531 C 257.304688 132.09375 263.019531 127.289062 265.117188 121.285156 C 266.722656 116.675781 266.503906 112.761719 264.476562 109.652344 C 259.660156 102.265625 245.792969 101.148438 236.617188 100.410156 C 235.277344 100.300781 234.042969 100.195312 232.957031 100.085938 C 221.160156 98.890625 209.117188 98.285156 197.167969 98.285156 C 190.0625 98.285156 182.878906 98.5 175.8125 98.925781 C 163.582031 99.664062 156.441406 103.199219 153.984375 109.738281 C 151.925781 115.238281 154.136719 123.617188 162.289062 128.308594 C 168.628906 131.960938 176.179688 132.367188 182.84375 132.726562 L 229.828125 135.234375 C 232.464844 135.378906 235.191406 135.523438 237.933594 135.523438 Z M 237.933594 135.523438 " style=" stroke:none;fill-rule:nonzero;fill:rgb(97.647059%,84.705882%,53.72549%);fill-opacity:1;"></path> <path d="M 116.917969 366.175781 C 117.984375 366.644531 119.144531 366.882812 120.363281 366.882812 C 123.140625 366.882812 126.160156 365.578125 128.238281 363.480469 C 130.648438 361.046875 132.273438 357.496094 133.070312 352.921875 C 134.03125 347.371094 133.667969 341.523438 132.015625 336.011719 C 131.230469 333.378906 130.15625 330.832031 128.820312 328.429688 C 128.15625 327.253906 127.734375 326.589844 127.355469 326.136719 L 125.863281 324.351562 L 123.761719 325.351562 C 123.246094 325.597656 122.675781 325.976562 121.96875 326.542969 C 114.710938 332.300781 110.203125 342.007812 110.203125 351.871094 C 110.203125 352.816406 110.25 353.765625 110.335938 354.6875 C 110.644531 358.035156 111.914062 363.980469 116.917969 366.175781 Z M 116.917969 366.175781 " style=" stroke:none;fill-rule:nonzero;fill:rgb(97.647059%,84.705882%,53.72549%);fill-opacity:1;"></path> <path d="M 119.8125 212.65625 C 122.28125 212.65625 124.515625 211.683594 125.9375 209.996094 C 128.292969 207.199219 128.15625 203.222656 127.773438 200.085938 L 127.601562 198.625 C 126.921875 192.761719 126.117188 187.222656 123.769531 183.835938 C 123.136719 182.910156 122.421875 182.296875 121.652344 182.019531 L 120.988281 181.78125 L 120.289062 181.859375 C 118.328125 182.089844 116.828125 183.734375 114.125 188.609375 C 114.125 188.609375 113.617188 189.503906 113.46875 189.757812 C 111.160156 193.683594 109.980469 197.21875 109.875 200.5625 C 109.730469 204.871094 111.550781 208.890625 114.625 211.046875 C 116.101562 212.085938 117.945312 212.65625 119.8125 212.65625 Z M 119.8125 212.65625 " style=" stroke:none;fill-rule:nonzero;fill:rgb(97.647059%,84.705882%,53.72549%);fill-opacity:1;"></path> <path d="M 365.214844 342.476562 L 365.136719 344.269531 C 364.550781 357.824219 363.550781 371.484375 362.171875 384.882812 L 361.832031 388.175781 L 365.144531 388.1875 C 372.707031 388.21875 380.011719 388.21875 387.289062 388.21875 L 392.777344 388.226562 C 398.300781 388.230469 403.871094 388.234375 409.582031 388.257812 L 412.519531 388.269531 L 412.59375 385.332031 C 412.863281 374.382812 412.699219 363.804688 407.769531 354.765625 C 402.511719 345.101562 391.476562 338.859375 379.660156 338.859375 C 375.128906 338.859375 370.691406 339.839844 366.835938 341.695312 Z M 365.214844 342.476562 " style=" stroke:none;fill-rule:nonzero;fill:rgb(58.039216%,77.647059%,40.784314%);fill-opacity:1;"></path> <path d="M 322.292969 118.839844 L 324.070312 121.269531 L 324.859375 122.425781 C 326.910156 125.421875 328.710938 128.234375 330.34375 130.984375 C 330.441406 131.160156 330.539062 131.335938 330.640625 131.503906 L 333.804688 136.785156 L 336.015625 131.035156 C 341.957031 115.5625 348.210938 102.074219 355.695312 88.574219 C 355.832031 88.324219 356.078125 88.304688 356.152344 88.304688 C 356.242188 88.304688 356.324219 88.328125 356.40625 88.371094 C 356.574219 88.464844 356.640625 88.601562 356.667969 88.699219 C 356.695312 88.792969 356.710938 88.933594 356.621094 89.097656 C 348.253906 104.199219 341.550781 118.996094 334.890625 137.074219 L 334.429688 138.316406 L 335.042969 139.492188 C 339.355469 147.808594 343.214844 156.890625 346.507812 166.484375 L 349.699219 175.785156 L 352.242188 166.285156 C 354.457031 158.015625 356.824219 149.417969 359.113281 141.105469 L 359.554688 139.5 C 362.675781 128.214844 366.558594 114.167969 369.785156 101.640625 C 371.386719 95.402344 373.042969 88.949219 372.039062 82.492188 C 370.144531 70.210938 359.402344 61.578125 348.570312 53.785156 C 342.667969 49.539062 336.351562 45.390625 329.671875 45.390625 C 328.527344 45.390625 327.394531 45.515625 326.304688 45.765625 C 319.46875 47.332031 314.949219 53.34375 310.546875 59.894531 L 291.5625 88.085938 L 293.839844 89.796875 C 304.476562 97.792969 314.046875 107.566406 322.292969 118.839844 Z M 322.292969 118.839844 " style=" stroke:none;fill-rule:nonzero;fill:rgb(58.039216%,77.647059%,40.784314%);fill-opacity:1;"></path> <path d="M 296.105469 322.570312 C 306.835938 322.570312 317.117188 322.078125 324.921875 316.117188 C 332.203125 310.566406 335.738281 300.121094 333.328125 291.277344 C 329.882812 278.679688 318.214844 274.9375 311.570312 273.832031 C 297.453125 271.460938 283.6875 269.464844 270.660156 267.902344 C 246.378906 264.992188 221.589844 263.515625 196.984375 263.515625 C 191.964844 263.515625 186.886719 263.578125 181.886719 263.703125 C 165.011719 264.125 148.089844 265.242188 131.59375 267.015625 C 117.175781 268.558594 100.878906 271.097656 90.015625 281.703125 C 84.792969 286.804688 81.546875 293.390625 81.121094 299.761719 C 80.628906 306.859375 83.738281 313.878906 89.035156 317.644531 C 94.671875 321.65625 101.863281 322 109.996094 322.019531 Z M 296.105469 322.570312 " style=" stroke:none;fill-rule:nonzero;fill:rgb(58.039216%,77.647059%,40.784314%);fill-opacity:1;"></path> <path d="M 275.492188 472.757812 C 284.375 471.65625 292.933594 470.292969 300.003906 465.765625 C 312.710938 457.621094 317.320312 441.566406 320.152344 426.941406 C 326.835938 392.4375 328.628906 357.152344 325.492188 322.074219 L 325.105469 317.726562 L 321.183594 319.644531 C 313.660156 323.332031 304.730469 323.640625 296.957031 323.640625 L 295.113281 323.640625 L 129.117188 323.152344 L 129.128906 323.144531 L 109.972656 323.089844 C 107.128906 323.082031 103.90625 323.070312 100.632812 322.691406 L 96.289062 322.1875 L 97.382812 326.421875 C 97.398438 326.496094 97.40625 326.535156 97.40625 326.535156 C 97.40625 326.535156 97.40625 326.535156 97.40625 326.53125 C 96.035156 366.671875 95.28125 397.980469 98.113281 435.410156 C 98.882812 445.539062 100.042969 455.230469 105.765625 462.515625 C 113.695312 472.589844 127.765625 474.953125 141.789062 476.003906 C 158.480469 477.257812 175.472656 477.894531 192.285156 477.894531 C 220.050781 477.894531 248.046875 476.164062 275.492188 472.757812 Z M 215.632812 453.105469 L 216.242188 429.558594 C 216.285156 427.9375 216.335938 426.101562 217.191406 424.722656 C 218.421875 422.742188 220.992188 421.875 225.785156 421.832031 C 231.03125 421.832031 236.394531 421.753906 241.136719 421.6875 C 243.699219 421.648438 246.257812 421.609375 248.835938 421.589844 L 269.675781 421.371094 C 271.589844 421.347656 273.480469 421.261719 275.484375 421.167969 L 275.941406 421.144531 C 278.179688 421.035156 280.714844 420.910156 283.144531 420.910156 C 285.546875 420.910156 287.621094 421.03125 289.480469 421.285156 C 293.332031 421.792969 295.101562 423.5625 295.40625 427.207031 C 295.765625 431.589844 295.382812 436.269531 295.015625 440.789062 C 294.828125 443.011719 294.652344 445.1875 294.546875 447.378906 C 294.441406 449.773438 294.246094 454.234375 291.398438 455.976562 C 289.957031 456.867188 288.046875 456.894531 286.351562 456.921875 L 221.183594 458.042969 C 221.058594 458.050781 220.925781 458.050781 220.777344 458.050781 C 220.726562 458.050781 220.675781 458.050781 220.625 458.050781 C 218.324219 458.050781 216.929688 457.597656 216.234375 456.625 C 215.558594 455.683594 215.601562 454.257812 215.632812 453.105469 Z M 131.136719 352.589844 C 130.417969 356.753906 128.972656 359.953125 126.84375 362.097656 C 125.097656 363.859375 122.675781 364.910156 120.363281 364.910156 C 119.394531 364.910156 118.5 364.730469 117.714844 364.390625 C 116.300781 363.761719 115.117188 362.640625 114.195312 361.058594 C 113.175781 359.308594 112.515625 357.046875 112.292969 354.507812 C 111.40625 344.859375 115.617188 334.378906 122.773438 328.425781 L 125.1875 326.417969 L 126.191406 327.863281 C 126.515625 328.328125 126.835938 328.898438 127.113281 329.386719 C 128.382812 331.679688 129.402344 334.097656 130.136719 336.566406 C 131.703125 341.820312 132.046875 347.359375 131.136719 352.589844 Z M 131.136719 352.589844 " style=" stroke:none;fill-rule:nonzero;fill:rgb(58.039216%,77.647059%,40.784314%);fill-opacity:1;"></path> <path d="M 106.191406 176.457031 L 102.972656 181.085938 L 103.566406 181.09375 C 100.667969 187.210938 99.261719 194.351562 98.078125 201.15625 C 96.394531 210.832031 95.210938 220.886719 100.695312 228.183594 C 106.363281 235.722656 116.980469 237.222656 126.488281 238.039062 C 167.417969 241.539062 209.109375 243.308594 250.402344 243.308594 C 260.050781 243.308594 269.808594 243.210938 279.40625 243.019531 C 290.722656 242.789062 300.777344 242.171875 309.195312 236.925781 C 317.980469 231.4375 323.914062 220.898438 325.0625 208.730469 C 325.859375 200.253906 325.03125 191.183594 322.851562 184.425781 L 323.246094 184.433594 L 322.085938 182.066406 L 321.789062 181.160156 L 321.664062 181.214844 L 321.085938 180.035156 C 320.335938 178.515625 319.558594 177.25 318.71875 176.191406 C 313.644531 169.699219 303.121094 168.882812 294.679688 168.230469 L 294 168.175781 C 292.210938 168.027344 290.527344 167.890625 288.976562 167.703125 C 257.695312 163.855469 225.78125 161.789062 194.125 161.570312 C 192.300781 161.558594 190.480469 161.550781 188.65625 161.550781 C 172.554688 161.550781 156.257812 162.027344 140.214844 162.964844 C 129.289062 163.617188 117.972656 164.84375 110.171875 171.882812 C 108.726562 173.191406 107.421875 174.6875 106.191406 176.457031 Z M 124.4375 208.730469 C 123.378906 209.988281 121.695312 210.710938 119.8125 210.710938 C 118.355469 210.710938 116.910156 210.261719 115.746094 209.445312 C 113.214844 207.667969 111.714844 204.289062 111.832031 200.632812 C 111.882812 199.148438 112.171875 197.601562 112.691406 196.035156 C 113.238281 194.382812 114.070312 192.601562 115.15625 190.757812 C 115.359375 190.414062 115.585938 190.015625 115.828125 189.574219 C 116.777344 187.867188 117.957031 185.742188 119.253906 184.558594 L 120.707031 183.238281 L 121.734375 184.414062 C 121.863281 184.5625 121.996094 184.710938 122.148438 184.9375 C 124.414062 188.207031 125.125 194.335938 125.65625 198.863281 L 125.828125 200.304688 C 126.164062 203.054688 126.308594 206.503906 124.4375 208.730469 Z M 124.4375 208.730469 " style=" stroke:none;fill-rule:nonzero;fill:rgb(58.039216%,77.647059%,40.784314%);fill-opacity:1;"></path> <path d="M 95.113281 141.367188 L 96.191406 139.269531 L 94.566406 137.644531 L 68.144531 85.011719 C 68.007812 84.742188 68.113281 84.425781 68.371094 84.296875 C 68.449219 84.257812 68.53125 84.234375 68.617188 84.234375 C 68.695312 84.234375 68.957031 84.257812 69.09375 84.535156 L 96.421875 138.96875 L 99.257812 134.484375 C 100.796875 132.050781 102.464844 129.558594 104.359375 126.867188 L 105.375 125.421875 L 105.371094 125.410156 L 107 123.222656 C 114.058594 113.746094 121.894531 105.253906 130.28125 97.988281 L 131.90625 96.464844 L 131.046875 94.476562 L 131.035156 94.425781 C 128.710938 85.339844 126.3125 75.941406 121.183594 67.898438 C 115.5 58.988281 107.011719 53.429688 98.476562 53.035156 C 98.144531 53.019531 97.8125 53.011719 97.480469 53.011719 C 92.28125 53.011719 87.289062 54.757812 83.523438 56.28125 C 76.644531 59.046875 60.382812 67.105469 57.933594 82.089844 C 56.800781 89.050781 58.917969 96.214844 60.789062 102.535156 L 80.964844 170.808594 L 84.242188 163.164062 C 87.503906 155.554688 91.164062 148.222656 95.113281 141.367188 Z M 95.113281 141.367188 " style=" stroke:none;fill-rule:nonzero;fill:rgb(58.039216%,77.647059%,40.784314%);fill-opacity:1;"></path> <path d="M 57.203125 348.066406 L 57.210938 345.25 L 54.398438 345.066406 C 50.976562 344.84375 47.003906 344.609375 43.097656 344.609375 C 37.898438 344.609375 33.429688 345.03125 29.433594 345.898438 C 19.785156 347.976562 11.960938 353.105469 7.96875 359.972656 C 3.226562 368.148438 3.769531 378.246094 4.726562 387.886719 L 4.933594 389.945312 L 6.929688 390.484375 C 18.785156 393.695312 31.003906 395.324219 43.246094 395.324219 C 46.84375 395.324219 50.496094 395.179688 54.136719 394.898438 C 54.140625 394.898438 54.179688 394.898438 54.265625 394.925781 L 58.3125 396.132812 L 58.121094 391.914062 C 57.472656 377.523438 57.164062 362.769531 57.203125 348.066406 Z M 57.203125 348.066406 " style=" stroke:none;fill-rule:nonzero;fill:rgb(58.039216%,77.647059%,40.784314%);fill-opacity:1;"></path> <path d="M 411.34375 352.816406 C 410.636719 351.515625 409.835938 350.285156 408.96875 349.109375 C 408.980469 349.007812 409.007812 348.90625 409.011719 348.796875 L 410.398438 305.304688 C 410.6875 296.214844 411.019531 285.910156 406.992188 276.566406 C 403.539062 268.566406 396.875 261.472656 387.714844 256.050781 C 380.027344 251.496094 373.492188 249.257812 365.324219 246.507812 C 365.078125 244.078125 364.824219 241.648438 364.554688 239.21875 C 362.515625 220.945312 359.4375 199.679688 353.324219 178.1875 C 356.40625 166.226562 360.003906 153.191406 363.480469 140.585938 C 366.984375 127.894531 370.605469 114.773438 373.710938 102.714844 C 375.34375 96.371094 377.195312 89.179688 376.0625 81.867188 C 373.921875 68.042969 362.480469 58.78125 350.949219 50.476562 C 343.542969 45.148438 334.851562 39.644531 325.402344 41.800781 C 317.132812 43.691406 311.863281 50.652344 307.171875 57.625 L 289.878906 83.316406 C 287.03125 81.414062 284.125 79.640625 281.167969 78.003906 C 281.175781 77.984375 281.183594 77.972656 281.191406 77.953125 C 284.652344 65.582031 287.769531 51.429688 280.882812 40.050781 C 276.855469 33.402344 270.320312 29.25 264.550781 25.585938 L 244.8125 13.050781 C 236.472656 7.757812 227.019531 1.753906 216.097656 0.332031 C 200.632812 -1.679688 186.042969 5.875 174.324219 11.945312 C 162.371094 18.132812 150.335938 25.222656 145.96875 37.699219 C 143.179688 45.667969 144.265625 53.882812 145.3125 61.828125 C 146.21875 68.726562 147.078125 75.242188 145.476562 81.308594 C 145.328125 81.875 145.339844 82.441406 145.460938 82.976562 C 142.761719 84.671875 140.117188 86.457031 137.542969 88.339844 C 136.453125 89.140625 135.371094 89.964844 134.296875 90.800781 C 132.160156 82.511719 129.566406 73.476562 124.617188 65.710938 C 118.222656 55.6875 108.527344 49.429688 98.675781 48.96875 C 92.386719 48.664062 86.453125 50.703125 81.992188 52.503906 C 66.105469 58.914062 55.871094 69.460938 53.917969 81.429688 C 52.636719 89.292969 54.894531 96.9375 56.886719 103.679688 L 76.402344 169.746094 C 76.621094 170.484375 77.0625 171.097656 77.632812 171.535156 C 77.382812 172.199219 77.128906 172.863281 76.882812 173.535156 C 66.707031 201.308594 61.832031 230.632812 59.058594 256.078125 L 52.554688 233.085938 C 52.171875 231.734375 51.460938 229.214844 49.203125 227.738281 C 47.140625 226.386719 44.847656 226.566406 43.476562 226.675781 L 23.636719 228.21875 C 21.820312 228.359375 20.40625 229.859375 20.378906 231.683594 L 19.832031 265.230469 C 19.828125 265.488281 19.855469 265.738281 19.90625 265.980469 C 16.257812 268.445312 13.292969 271.511719 11.257812 275.03125 C 6.503906 283.257812 6.941406 293.085938 7.292969 300.980469 L 9.550781 351.542969 C 9.550781 351.542969 9.550781 351.546875 9.550781 351.546875 C 7.527344 353.476562 5.804688 355.609375 4.457031 357.929688 C -1.449219 368.09375 -0.117188 380.730469 0.855469 389.960938 L 5.449219 433.535156 C 6.882812 447.167969 8.671875 464.128906 19.203125 476.402344 C 32.183594 491.535156 53.144531 494.289062 73.5 495.808594 C 73.589844 495.816406 73.679688 495.820312 73.769531 495.820312 C 74.941406 495.820312 75.996094 495.234375 76.640625 494.332031 C 91.9375 509.769531 115.5 512 137.613281 512 C 139.648438 512 141.675781 511.980469 143.679688 511.953125 L 279.1875 509.984375 C 298.777344 509.703125 317.535156 508.507812 331.714844 497.851562 C 336.882812 499.792969 342.421875 500.753906 348.066406 500.753906 C 360.402344 500.753906 373.230469 496.230469 383.738281 487.691406 C 400.257812 474.261719 407.855469 454.699219 411.320312 440.652344 C 415.675781 422.992188 416.15625 404.71875 416.625 387.050781 C 416.898438 376.617188 417.238281 363.632812 411.34375 352.816406 Z M 388.789062 335.207031 L 391.742188 267.660156 C 395.179688 270.714844 398.441406 274.59375 400.5 279.367188 C 403.90625 287.261719 403.601562 296.726562 403.335938 305.082031 L 402.148438 342.234375 C 398.152344 339.210938 393.523438 337.035156 388.652344 335.835938 C 388.726562 335.636719 388.78125 335.429688 388.789062 335.207031 Z M 381.683594 260.757812 C 382.480469 261.191406 383.289062 261.644531 384.113281 262.132812 C 385.289062 262.828125 386.546875 263.636719 387.835938 264.554688 L 384.753906 335.03125 C 384.753906 335.050781 384.757812 335.074219 384.757812 335.09375 C 383.199219 334.878906 381.628906 334.761719 380.054688 334.75 Z M 377.6875 258.75 L 376.011719 334.949219 C 373.433594 335.222656 370.886719 335.777344 368.421875 336.640625 C 369.292969 309.1875 368.503906 281.675781 366.050781 254.21875 C 370.273438 255.660156 373.96875 257.019531 377.6875 258.75 Z M 364.382812 392.253906 C 368.679688 392.269531 372.890625 392.28125 377.058594 392.285156 C 377.152344 392.671875 377.363281 393.039062 377.683594 393.320312 L 381.824219 396.941406 L 367.855469 412.195312 L 362.476562 407.421875 C 363.167969 402.371094 363.804688 397.3125 364.382812 392.253906 Z M 384.863281 399.601562 L 396.734375 409.992188 L 382.949219 425.59375 L 370.875 414.878906 Z M 382.640625 392.292969 C 383.789062 392.292969 384.933594 392.292969 386.078125 392.292969 L 384.550781 393.960938 Z M 359.292969 452.367188 L 353.304688 459.144531 C 353.976562 456.328125 354.578125 453.523438 355.132812 450.785156 C 355.273438 450.09375 355.40625 449.398438 355.542969 448.707031 Z M 356.476562 443.972656 C 357.539062 438.441406 358.527344 432.898438 359.453125 427.351562 L 368.144531 417.855469 L 380.273438 428.621094 L 361.972656 449.335938 Z M 362.1875 455.191406 L 373.078125 465.816406 L 357.347656 482.441406 L 348.8125 473.921875 C 349.652344 471.761719 350.402344 469.566406 351.078125 467.355469 C 351.394531 467.246094 351.695312 467.066406 351.933594 466.796875 Z M 364.867188 452.160156 L 383.292969 431.304688 L 395.496094 442.136719 L 375.855469 462.882812 Z M 365.125 415.175781 L 360.625 420.089844 C 361.035156 417.472656 361.429688 414.851562 361.808594 412.230469 Z M 313.035156 61.570312 C 317.09375 55.535156 321.21875 50.007812 326.976562 48.691406 C 333.550781 47.191406 340.382812 51.585938 346.816406 56.214844 C 357.136719 63.640625 367.355469 71.824219 369.074219 82.949219 C 369.984375 88.824219 368.394531 94.992188 366.863281 100.953125 C 363.773438 112.953125 360.160156 126.042969 356.667969 138.703125 C 354.210938 147.601562 351.699219 156.703125 349.347656 165.511719 C 346.160156 156.242188 342.328125 147.035156 337.703125 138.105469 C 344.296875 120.230469 350.976562 105.484375 359.242188 90.554688 C 360.1875 88.847656 359.574219 86.695312 357.863281 85.75 C 356.160156 84.804688 354.003906 85.421875 353.058594 87.128906 C 345.507812 100.769531 339.253906 114.242188 333.210938 129.964844 C 333.117188 129.808594 333.03125 129.648438 332.9375 129.492188 C 327.347656 120.050781 320.585938 111.023438 313.058594 103.027344 C 311.742188 101.628906 295.960938 86.929688 295.644531 87.402344 C 295.648438 87.402344 313.035156 61.570312 313.035156 61.570312 Z M 152.644531 40.035156 C 156.15625 29.996094 166.441406 23.988281 177.578125 18.222656 C 190.894531 11.324219 202.921875 5.746094 215.183594 7.339844 C 224.554688 8.558594 233.300781 14.117188 241.023438 19.019531 L 260.761719 31.554688 C 265.875 34.800781 271.667969 38.480469 274.835938 43.710938 C 280.042969 52.316406 277.785156 63.65625 274.757812 74.679688 C 273.164062 73.921875 271.554688 73.199219 269.933594 72.519531 C 269.007812 72.132812 245.351562 64.757812 245.160156 66.640625 C 246.085938 55.636719 246.285156 43.347656 238.644531 34.816406 C 234.558594 30.257812 228.359375 27.191406 221.191406 26.179688 C 214.972656 25.304688 208.707031 25.96875 202.855469 26.820312 C 195.160156 27.941406 186.6875 30.039062 182.203125 37.085938 C 178.355469 43.132812 179.175781 49.882812 179.972656 56.40625 C 180.398438 59.917969 182.019531 65.6875 178.824219 67.371094 C 177.078125 68.289062 174.460938 68.539062 172.539062 69.453125 C 170.726562 70.3125 168.984375 71.304688 167.113281 72.042969 C 162.34375 73.921875 157.6875 76.089844 153.167969 78.511719 C 153.855469 72.601562 153.082031 66.675781 152.320312 60.902344 C 151.335938 53.453125 150.410156 46.414062 152.644531 40.035156 Z M 186.988281 55.554688 C 186.3125 50.019531 185.679688 44.792969 188.167969 40.882812 C 191.121094 36.242188 197.765625 34.707031 203.875 33.816406 C 209.203125 33.042969 214.867188 32.429688 220.203125 33.179688 C 225.726562 33.960938 230.402344 36.214844 233.378906 39.535156 C 239.148438 45.972656 238.957031 56.050781 238.125 65.945312 C 238.082031 65.941406 238.039062 65.9375 237.996094 65.933594 C 236.046875 65.753906 234.070312 65.566406 232.046875 65.359375 C 217.402344 63.84375 202.964844 62.765625 187.59375 65.898438 C 187.808594 62.425781 187.402344 58.949219 186.988281 55.554688 Z M 63.664062 101.675781 C 61.886719 95.660156 59.871094 88.839844 60.894531 82.570312 C 63.09375 69.113281 78.230469 61.644531 84.640625 59.058594 C 88.433594 57.527344 93.429688 55.808594 98.34375 56.03125 C 105.90625 56.382812 113.496094 61.425781 118.65625 69.511719 C 123.546875 77.183594 125.886719 86.386719 128.152344 95.285156 C 128.191406 95.4375 128.253906 95.578125 128.308594 95.722656 C 121.890625 101.285156 115.957031 107.398438 110.511719 113.921875 C 108.660156 116.140625 95.824219 131.09375 96.722656 132.886719 C 96.71875 132.878906 71.777344 83.1875 71.777344 83.1875 C 70.902344 81.445312 68.78125 80.738281 67.035156 81.613281 C 65.289062 82.488281 64.585938 84.613281 65.460938 86.359375 L 91.878906 138.992188 C 92.046875 139.328125 92.261719 139.617188 92.507812 139.871094 C 88.488281 146.859375 84.800781 154.238281 81.480469 161.980469 Z M 60.644531 457.921875 C 60.667969 458.082031 60.699219 458.246094 60.726562 458.40625 C 60.628906 458.328125 60.53125 458.246094 60.433594 458.167969 Z M 59.882812 452.601562 L 57.3125 455.601562 C 53.054688 452.019531 48.890625 448.324219 44.796875 444.546875 L 57.597656 429.820312 C 58.035156 434.875 58.492188 439.925781 59.011719 444.96875 C 59.269531 447.503906 59.554688 450.054688 59.882812 452.601562 Z M 43.351562 407.34375 L 34.960938 399.136719 C 37.707031 399.296875 40.457031 399.394531 43.214844 399.394531 C 45.785156 399.394531 48.359375 399.296875 50.933594 399.160156 Z M 55.304688 400.382812 C 55.390625 400.292969 55.460938 400.191406 55.527344 400.089844 C 55.890625 406.917969 56.332031 413.738281 56.847656 420.550781 L 46.238281 410.171875 Z M 40.601562 410.308594 L 26.085938 425.976562 C 22.683594 422.347656 19.34375 418.660156 16.09375 414.894531 C 20.652344 409.835938 25.496094 405.023438 30.589844 400.511719 Z M 43.492188 413.132812 L 56.0625 425.433594 L 41.828125 441.804688 C 37.398438 437.625 33.070312 433.332031 28.855469 428.933594 Z M 42.148438 447.597656 C 46.246094 451.378906 50.417969 455.082031 54.683594 458.667969 L 40.707031 474.984375 C 36.292969 471.488281 32.003906 467.84375 27.839844 464.054688 Z M 27.394531 235.015625 C 30.695312 234.757812 34.003906 234.632812 37.308594 234.496094 C 38.09375 234.464844 45.390625 233.859375 45.300781 233.6875 C 45.476562 234.023438 45.683594 234.753906 45.757812 235.011719 C 47.25 240.292969 48.742188 245.570312 50.238281 250.851562 C 50.660156 252.355469 53.09375 257.929688 51.714844 258.917969 C 50.96875 259.453125 47.042969 258.5625 45.972656 258.652344 C 43.039062 258.894531 40.105469 259.347656 37.179688 259.691406 C 36.308594 259.796875 26.972656 261.03125 26.953125 262.324219 C 26.953125 262.308594 27.394531 235.015625 27.394531 235.015625 Z M 17.378906 278.570312 C 20.515625 273.140625 26.796875 269.066406 34.605469 267.386719 C 42.03125 265.789062 49.964844 266.3125 57.632812 266.824219 C 57.753906 266.832031 57.867188 266.8125 57.984375 266.808594 C 57.683594 270.066406 57.410156 273.253906 57.164062 276.328125 C 55.433594 297.800781 54.46875 319.378906 54.25 340.976562 C 45.828125 340.445312 37.167969 340.0625 28.570312 341.917969 C 24.121094 342.875 20.015625 344.445312 16.402344 346.5 L 14.355469 300.667969 C 14.046875 293.6875 13.65625 285.007812 17.378906 278.570312 Z M 10.570312 361.480469 C 14.136719 355.339844 21.242188 350.726562 30.058594 348.828125 C 37.867188 347.144531 46.140625 347.542969 54.203125 348.058594 C 54.167969 362.726562 54.46875 377.398438 55.121094 392.046875 C 54.722656 391.933594 54.304688 391.875 53.871094 391.910156 C 38.300781 393.121094 22.78125 391.667969 7.71875 387.589844 C 6.710938 377.550781 6.402344 368.648438 10.570312 361.480469 Z M 8.503906 395.09375 C 14.5625 396.613281 20.683594 397.71875 26.847656 398.433594 C 22.164062 402.648438 17.695312 407.113281 13.460938 411.785156 C 12.234375 410.328125 11.003906 408.878906 9.800781 407.402344 Z M 12.476562 432.792969 L 11.1875 420.566406 C 11.917969 419.6875 12.65625 418.816406 13.402344 417.953125 C 16.632812 421.6875 19.953125 425.347656 23.332031 428.949219 L 13.285156 439.792969 C 12.996094 437.503906 12.730469 435.175781 12.476562 432.792969 Z M 14.019531 444.941406 L 26.105469 431.898438 C 30.355469 436.324219 34.710938 440.648438 39.175781 444.859375 L 24.875 461.308594 C 21.605469 458.230469 18.425781 455.066406 15.332031 451.816406 C 14.820312 449.597656 14.394531 447.300781 14.019531 444.941406 Z M 20.640625 466.179688 C 19.546875 464.253906 18.617188 462.222656 17.808594 460.097656 C 19.265625 461.535156 20.734375 462.957031 22.226562 464.355469 Z M 35.90625 480.589844 C 31.601562 478.371094 27.753906 475.511719 24.570312 471.796875 C 23.988281 471.121094 23.445312 470.421875 22.921875 469.710938 L 25.1875 467.105469 C 29.359375 470.898438 33.65625 474.550781 38.074219 478.058594 Z M 39.71875 482.347656 L 41.265625 480.542969 C 43.148438 481.992188 45.054688 483.410156 46.980469 484.800781 C 44.472656 484.117188 42.042969 483.304688 39.71875 482.347656 Z M 56.835938 486.894531 C 56.703125 486.722656 56.550781 486.566406 56.363281 486.441406 C 52.113281 483.589844 47.960938 480.589844 43.894531 477.472656 L 57.804688 461.234375 C 59.082031 462.285156 60.347656 463.351562 61.636719 464.386719 C 61.71875 464.449219 61.800781 464.503906 61.886719 464.554688 C 63.761719 473.1875 66.714844 481.441406 71.824219 488.589844 C 66.78125 488.1875 61.730469 487.679688 56.835938 486.894531 Z M 329.992188 490.132812 C 317.335938 501.441406 298.691406 502.632812 279.085938 502.917969 L 143.578125 504.882812 C 120.414062 505.21875 94.5 504.183594 79.960938 487.539062 C 70.046875 476.1875 67.648438 459.929688 66.042969 444.25 C 60.355469 388.78125 59.738281 332.472656 64.207031 276.894531 C 66.523438 248.136719 70.808594 210.671875 83.519531 175.96875 C 96.386719 140.847656 116.511719 112.519531 141.726562 94.042969 C 155.378906 84.039062 171.121094 76.828125 187.257812 73.1875 C 194.617188 71.527344 201.675781 70.925781 208.746094 70.925781 C 216.140625 70.925781 223.550781 71.585938 231.324219 72.390625 C 233.371094 72.601562 235.371094 72.789062 237.34375 72.972656 C 247.949219 73.957031 257.105469 74.808594 267.203125 79.039062 C 290.914062 88.976562 312.101562 108.175781 326.859375 133.097656 C 328 135.023438 329.09375 136.976562 330.152344 138.9375 C 330.195312 139.988281 330.710938 140.964844 331.554688 141.601562 C 348.382812 174.199219 354.292969 210.945312 357.53125 240.003906 C 365.332031 309.953125 362.195312 380.398438 348.207031 449.378906 C 345.269531 463.847656 341.199219 480.125 329.992188 490.132812 Z M 346.730469 493.660156 C 343.671875 493.5625 340.664062 493.128906 337.761719 492.359375 C 341.699219 488.082031 344.734375 483.175781 347.121094 477.941406 L 354.570312 485.378906 Z M 352.480469 493.460938 L 357.429688 488.230469 L 361.003906 491.800781 C 358.179688 492.621094 355.328125 493.175781 352.480469 493.460938 Z M 379.277344 482.207031 C 374.792969 485.847656 369.839844 488.644531 364.707031 490.578125 C 364.695312 490.078125 364.5 489.585938 364.121094 489.207031 L 360.207031 485.296875 L 375.972656 468.636719 L 384.566406 477.023438 C 384.621094 477.074219 384.679688 477.113281 384.738281 477.160156 C 383.042969 478.921875 381.230469 480.617188 379.277344 482.207031 Z M 387.417969 474.167969 C 387.40625 474.15625 387.398438 474.144531 387.386719 474.132812 L 378.75 465.703125 L 398.515625 444.816406 L 401.710938 447.65625 C 401.761719 447.699219 401.816406 447.730469 401.871094 447.769531 C 398.945312 456.359375 394.414062 465.886719 387.417969 474.167969 Z M 404.457031 438.960938 C 404.089844 440.4375 403.671875 441.984375 403.203125 443.578125 L 401.292969 441.882812 L 404.585938 438.40625 C 404.539062 438.589844 404.5 438.773438 404.457031 438.960938 Z M 406.164062 430.859375 L 398.273438 439.199219 L 385.96875 428.277344 L 399.777344 412.652344 L 407.429688 419.351562 C 407.542969 419.449219 407.660156 419.527344 407.785156 419.59375 C 407.371094 423.375 406.835938 427.132812 406.164062 430.859375 Z M 408.257812 414.707031 L 402.449219 409.625 L 409.058594 402.144531 C 408.871094 406.332031 408.621094 410.523438 408.257812 414.707031 Z M 409.300781 395.769531 L 399.410156 406.964844 L 387.589844 396.621094 L 391.550781 392.296875 C 397.417969 392.300781 403.332031 392.308594 409.40625 392.332031 C 409.375 393.476562 409.339844 394.621094 409.300781 395.769531 Z M 409.597656 385.261719 C 401.984375 385.230469 394.632812 385.226562 387.296875 385.222656 C 380.011719 385.222656 372.710938 385.21875 365.152344 385.1875 C 366.554688 371.621094 367.546875 358.019531 368.136719 344.40625 C 380.925781 338.246094 398.324219 343.6875 405.136719 356.195312 C 409.863281 364.867188 409.839844 375.582031 409.597656 385.261719 Z M 409.597656 385.261719 " style=" stroke:none;fill-rule:nonzero;fill:rgb(0%,0%,0%);fill-opacity:1;"></path> <path d="M 10.5625 414.613281 C 10.625 414.6875 10.6875 414.765625 10.753906 414.839844 C 10.703125 414.898438 10.652344 414.957031 10.605469 415.011719 Z M 10.5625 414.613281 " style=" stroke:none;fill-rule:nonzero;fill:rgb(0%,0%,0%);fill-opacity:1;"></path> <path d="M 329.277344 318.730469 C 329.25 318.449219 329.179688 318.179688 329.09375 317.921875 C 336.585938 311.097656 339.929688 300.023438 337.25 290.207031 C 334.304688 279.421875 325.1875 271.988281 312.242188 269.8125 C 298.09375 267.441406 284.265625 265.4375 271.140625 263.867188 C 241.601562 260.324219 211.542969 258.902344 181.792969 259.636719 C 164.925781 260.054688 147.890625 261.175781 131.160156 262.96875 C 116.0625 264.585938 98.972656 267.273438 87.175781 278.792969 C 81.160156 284.664062 77.570312 292.011719 77.058594 299.488281 C 76.480469 307.96875 80.253906 316.394531 86.679688 320.960938 C 88.953125 322.578125 91.449219 323.679688 94.011719 324.433594 C 93.609375 324.984375 93.363281 325.660156 93.335938 326.390625 C 91.964844 366.675781 91.210938 398.097656 94.050781 435.710938 C 94.867188 446.484375 96.128906 456.832031 102.570312 465.023438 C 111.464844 476.339844 126.53125 478.9375 141.484375 480.058594 C 158.363281 481.328125 175.308594 481.960938 192.265625 481.960938 C 220.257812 481.960938 248.273438 480.234375 276 476.792969 C 285.371094 475.628906 294.425781 474.171875 302.199219 469.1875 C 316.203125 460.207031 321.152344 443.179688 324.148438 427.710938 C 331.101562 391.804688 332.828125 355.136719 329.277344 318.730469 Z M 84.109375 299.972656 C 84.496094 294.316406 87.414062 288.441406 92.113281 283.851562 C 102.292969 273.914062 117.996094 271.488281 131.910156 269.996094 C 148.449219 268.226562 165.292969 267.117188 181.964844 266.707031 C 211.378906 265.976562 241.097656 267.382812 270.300781 270.886719 C 283.316406 272.445312 297.03125 274.429688 311.070312 276.785156 C 317.015625 277.785156 327.433594 281.097656 330.429688 292.066406 C 332.535156 299.773438 329.449219 308.886719 323.101562 313.730469 C 315.949219 319.1875 306.171875 319.601562 295.121094 319.570312 L 110.007812 319.019531 C 102.390625 319 95.6875 318.695312 90.773438 315.203125 C 86.308594 312.03125 83.695312 306.050781 84.109375 299.972656 Z M 126.207031 329.90625 C 127.429688 332.089844 128.417969 334.433594 129.144531 336.867188 C 130.660156 341.953125 130.996094 347.328125 130.113281 352.414062 C 129.425781 356.371094 128.078125 359.382812 126.105469 361.371094 C 124.195312 363.296875 120.835938 364.625 118.121094 363.429688 C 114.386719 361.789062 113.519531 356.578125 113.320312 354.414062 C 112.441406 344.839844 116.667969 334.582031 123.835938 328.890625 C 124.46875 328.382812 124.847656 328.160156 125.050781 328.0625 C 125.410156 328.476562 125.972656 329.488281 126.207031 329.90625 Z M 317.207031 426.371094 C 314.5 440.371094 310.140625 455.699219 298.382812 463.238281 C 291.859375 467.421875 283.660156 468.71875 275.128906 469.78125 C 231.070312 475.25 186.285156 476.335938 142.015625 473.011719 C 128.671875 472.011719 115.332031 469.820312 108.125 460.65625 C 102.914062 454.027344 101.828125 444.824219 101.101562 435.179688 C 98.285156 397.921875 99.035156 366.691406 100.402344 326.632812 C 100.414062 326.300781 100.363281 325.980469 100.285156 325.667969 C 103.734375 326.066406 107.085938 326.082031 109.984375 326.089844 L 120.855469 326.121094 C 112.957031 332.691406 108.320312 344.117188 109.300781 354.78125 C 109.300781 354.785156 109.300781 354.785156 109.300781 354.785156 C 109.859375 360.859375 112.480469 365.359375 116.496094 367.128906 C 117.699219 367.65625 119.015625 367.914062 120.363281 367.914062 C 123.410156 367.914062 126.605469 366.601562 128.972656 364.214844 C 131.539062 361.628906 133.257812 357.890625 134.089844 353.101562 C 135.082031 347.410156 134.707031 341.394531 133.011719 335.710938 C 132.203125 332.996094 131.097656 330.378906 129.730469 327.933594 C 129.390625 327.324219 129.042969 326.707031 128.65625 326.144531 L 295.101562 326.640625 C 295.707031 326.640625 296.324219 326.644531 296.957031 326.644531 C 304.699219 326.644531 314.296875 326.355469 322.5 322.339844 C 325.613281 357.105469 323.84375 392.089844 317.207031 426.371094 Z M 317.207031 426.371094 " style=" stroke:none;fill-rule:nonzero;fill:rgb(0%,0%,0%);fill-opacity:1;"></path> <path d="M 107.445312 168.871094 C 98.8125 176.667969 96.191406 188.261719 94.070312 200.457031 C 92.3125 210.542969 90.980469 222.027344 97.441406 230.625 C 104.125 239.519531 115.761719 241.207031 126.144531 242.09375 C 167.304688 245.605469 208.980469 247.375 250.429688 247.375 C 260.128906 247.375 269.828125 247.28125 279.492188 247.085938 C 290.988281 246.855469 302.074219 246.167969 311.347656 240.375 C 321.210938 234.214844 327.851562 222.527344 329.109375 209.113281 C 330.125 198.300781 328.851562 182.535156 321.925781 173.679688 C 315.757812 165.796875 304.238281 164.894531 294.980469 164.167969 C 293 164.011719 291.128906 163.867188 289.472656 163.664062 C 257.992188 159.792969 225.921875 157.71875 194.152344 157.5 C 176.148438 157.375 157.925781 157.851562 139.972656 158.90625 C 128.335938 159.59375 116.234375 160.925781 107.445312 168.871094 Z M 322.074219 208.453125 C 321.019531 219.6875 315.609375 229.378906 307.605469 234.378906 C 299.847656 239.222656 290.21875 239.800781 279.347656 240.015625 C 228.636719 241.039062 177.292969 239.367188 126.746094 235.050781 C 117.886719 234.296875 108.019531 232.9375 103.09375 226.378906 C 98.328125 220.039062 99.464844 210.695312 101.035156 201.667969 C 102.265625 194.609375 103.660156 187.808594 106.363281 182.175781 L 117.234375 182.34375 C 115.578125 183.855469 114.265625 186.210938 113.199219 188.125 C 112.972656 188.535156 112.761719 188.914062 112.578125 189.226562 C 110.171875 193.3125 108.945312 197.007812 108.832031 200.53125 C 108.683594 205.191406 110.671875 209.546875 114.027344 211.894531 C 115.765625 213.117188 117.8125 213.707031 119.816406 213.707031 C 122.46875 213.707031 125.046875 212.667969 126.730469 210.664062 C 129.347656 207.550781 129.210938 203.296875 128.800781 199.9375 L 128.632812 198.507812 C 128.074219 193.707031 127.308594 187.128906 124.617188 183.230469 C 124.410156 182.929688 124.199219 182.675781 123.992188 182.445312 L 319.132812 185.410156 C 319.140625 185.410156 319.152344 185.410156 319.164062 185.410156 C 319.445312 185.410156 319.714844 185.347656 319.960938 185.242188 C 322.238281 192.203125 322.761719 201.117188 322.074219 208.453125 Z M 116.054688 191.28125 C 116.257812 190.9375 116.484375 190.53125 116.730469 190.085938 C 118.625 186.679688 119.949219 184.917969 120.636719 184.84375 C 120.636719 184.84375 120.882812 184.933594 121.292969 185.527344 C 123.414062 188.597656 124.140625 194.84375 124.621094 198.976562 L 124.792969 200.429688 C 125.105469 202.976562 125.253906 206.148438 123.640625 208.066406 C 122.050781 209.953125 118.640625 210.199219 116.34375 208.589844 C 114.09375 207.015625 112.765625 203.976562 112.871094 200.660156 C 112.960938 197.832031 114.003906 194.761719 116.054688 191.28125 Z M 140.390625 165.964844 C 158.1875 164.917969 176.265625 164.445312 194.101562 164.570312 C 225.601562 164.789062 257.394531 166.839844 288.609375 170.675781 C 290.421875 170.898438 292.367188 171.054688 294.429688 171.214844 C 302.304688 171.832031 312.105469 172.601562 316.359375 178.039062 C 317.121094 179.011719 317.792969 180.136719 318.398438 181.355469 L 108.65625 178.171875 C 109.679688 176.6875 110.84375 175.324219 112.183594 174.113281 C 119.273438 167.707031 130.003906 166.574219 140.390625 165.964844 Z M 140.390625 165.964844 " style=" stroke:none;fill-rule:nonzero;fill:rgb(0%,0%,0%);fill-opacity:1;"></path> <path d="M 289.875 418.304688 C 285.28125 417.691406 280.460938 417.925781 275.796875 418.148438 C 273.660156 418.25 271.640625 418.347656 269.644531 418.367188 L 248.800781 418.585938 C 246.230469 418.613281 243.65625 418.648438 241.085938 418.6875 C 236.066406 418.753906 230.878906 418.828125 225.78125 418.828125 C 225.777344 418.828125 225.769531 418.828125 225.761719 418.828125 C 221.558594 418.871094 216.953125 419.417969 214.640625 423.140625 C 213.355469 425.210938 213.292969 427.585938 213.246094 429.496094 L 212.632812 453.027344 C 212.597656 454.453125 212.539062 456.613281 213.792969 458.367188 C 215.542969 460.816406 218.679688 461.050781 220.628906 461.050781 C 220.882812 461.050781 221.121094 461.046875 221.328125 461.042969 L 286.402344 459.921875 C 288.375 459.890625 290.832031 459.847656 292.972656 458.535156 C 297.175781 455.957031 297.429688 450.25 297.550781 447.507812 C 297.640625 445.40625 297.816406 443.289062 298 441.046875 C 298.382812 436.386719 298.78125 431.574219 298.394531 426.957031 C 297.976562 421.914062 295.105469 419.003906 289.875 418.304688 Z M 293.972656 440.714844 C 293.796875 442.894531 293.609375 445.152344 293.511719 447.328125 C 293.367188 450.601562 292.945312 453.8125 290.863281 455.089844 C 289.65625 455.828125 287.890625 455.855469 286.332031 455.882812 L 221.257812 457.003906 C 219.570312 457.027344 217.734375 456.9375 217.078125 456.019531 C 216.644531 455.414062 216.636719 454.351562 216.667969 453.128906 L 217.28125 429.601562 C 217.320312 428.105469 217.363281 426.410156 218.070312 425.273438 C 219.351562 423.210938 222.691406 422.898438 225.792969 422.867188 C 230.910156 422.867188 236.113281 422.796875 241.140625 422.726562 C 243.707031 422.6875 246.273438 422.652344 248.839844 422.628906 L 269.683594 422.410156 C 271.753906 422.386719 273.90625 422.285156 275.988281 422.183594 C 280.472656 421.96875 285.109375 421.746094 289.335938 422.308594 C 292.652344 422.753906 294.109375 424.195312 294.367188 427.292969 C 294.726562 431.574219 294.34375 436.21875 293.972656 440.714844 Z M 293.972656 440.714844 " style=" stroke:none;fill-rule:nonzero;fill:rgb(0%,0%,0%);fill-opacity:1;"></path> <path d="M 153.007812 109.375 C 150.15625 116.992188 155.222656 125.445312 161.773438 129.214844 C 168.320312 132.984375 176.003906 133.394531 182.789062 133.757812 L 229.765625 136.273438 C 232.355469 136.414062 235.085938 136.558594 237.867188 136.558594 C 241.929688 136.558594 246.105469 136.25 250.113281 135.144531 C 257.914062 133 263.886719 127.945312 266.09375 121.632812 C 267.8125 116.707031 267.5625 112.488281 265.351562 109.089844 C 260.261719 101.269531 246.082031 100.125 236.699219 99.371094 C 235.371094 99.261719 234.140625 99.164062 233.0625 99.054688 C 214.066406 97.132812 194.78125 96.742188 175.746094 97.890625 C 163.054688 98.660156 155.617188 102.414062 153.007812 109.375 Z M 156.792969 110.792969 C 158.78125 105.484375 165.0625 102.585938 175.992188 101.921875 C 194.808594 100.785156 213.875 101.171875 232.65625 103.074219 C 233.761719 103.183594 235.015625 103.285156 236.375 103.394531 C 244.449219 104.046875 257.957031 105.136719 261.96875 111.292969 C 263.480469 113.617188 263.585938 116.5625 262.28125 120.296875 C 260.511719 125.359375 255.5625 129.453125 249.042969 131.25 C 242.921875 132.933594 236.34375 132.582031 229.980469 132.242188 L 183.003906 129.722656 C 176.675781 129.386719 169.5 129 163.789062 125.714844 C 158.699219 122.785156 154.6875 116.398438 156.792969 110.792969 Z M 156.792969 110.792969 " style=" stroke:none;fill-rule:nonzero;fill:rgb(0%,0%,0%);fill-opacity:1;"></path> </g> </svg> 